{"glyphs":{"0":{"ha":589,"x_min":0,"x_max":0,"o":"m 314 1031 b 294 -8 3 1031 -90 -8 b 314 1031 646 -8 611 1031 z m 294 156 b 303 958 174 156 194 958 b 294 156 401 958 421 156 z "},"1":{"ha":442,"x_min":0,"x_max":0,"o":"m 392 51 b 397 994 290 51 396 968 b 313 1031 399 1017 354 1031 l 313 1031 b 311 1031 313 1031 313 1031 b 65 928 221 1031 174 928 b 121 799 29 928 25 799 b 225 851 163 799 197 824 b 361 -8 199 540 164 -8 b 392 51 403 -8 408 51 z "},"2":{"ha":675,"x_min":0,"x_max":0,"o":"m 419 339 b 403 281 368 339 372 281 b 357 121 524 281 538 121 b 158 133 217 121 238 132 b 606 793 272 340 606 544 b 358 1031 606 936 506 1031 b 196 622 21 1031 -6 622 b 293 739 300 622 315 739 b 319 956 129 739 172 956 b 439 811 417 956 439 874 b 43 8 439 586 43 253 b 114 -8 43 -37 96 -28 b 406 -36 221 -10 299 -36 b 419 339 724 -36 688 339 z "},"3":{"ha":658,"x_min":0,"x_max":0,"o":"m 408 517 b 314 1031 663 639 628 1031 b 168 644 1 1031 -32 644 b 267 744 286 644 301 744 b 310 965 111 744 147 965 b 239 540 472 965 428 540 b 218 513 226 540 219 526 b 218 513 218 513 218 513 b 218 511 218 511 218 511 b 218 508 218 510 218 510 b 218 508 218 508 218 508 b 239 481 219 494 226 481 b 279 156 531 481 506 156 b 267 276 117 156 140 276 b 256 324 301 276 294 324 b 283 -10 -4 324 -28 -10 b 408 517 632 -10 757 417 z "},"4":{"ha":647,"x_min":0,"x_max":0,"o":"m 586 471 b 497 464 557 465 528 464 b 538 1000 508 714 536 986 b 386 1006 539 1040 394 1053 l 49 461 b 46 458 47 461 47 460 l 46 458 l 46 458 b 65 404 38 440 46 401 b 351 390 183 425 272 407 b 508 -8 360 176 400 -8 b 538 50 549 -8 554 50 b 494 365 499 50 490 192 b 549 369 513 365 531 367 b 586 471 621 381 611 475 z m 185 481 l 364 814 b 349 476 356 715 349 594 b 185 481 301 481 247 483 z "},"5":{"ha":667,"x_min":0,"x_max":0,"o":"m 207 615 b 192 917 193 676 189 789 b 515 915 306 904 453 915 b 515 1010 553 915 550 1010 b 103 1018 456 1010 226 1018 l 103 1018 b 43 979 71 1018 43 1010 b 210 507 43 908 36 507 b 247 553 238 507 249 536 b 286 156 543 521 492 156 b 286 276 153 156 164 276 b 264 340 319 276 325 340 b 271 -10 -18 340 -15 -10 b 207 615 713 -10 792 682 z "},"6":{"ha":633,"x_min":0,"x_max":0,"o":"m 372 590 b 218 521 303 590 253 558 b 340 953 221 731 265 953 b 353 732 432 953 436 732 b 419 632 335 732 328 632 b 342 1031 593 632 551 1031 b 326 -8 47 1031 -144 -8 b 372 590 617 -8 718 590 z m 326 156 b 219 442 261 156 228 286 b 354 518 250 481 296 518 b 326 156 476 518 488 156 z "},"7":{"ha":608,"x_min":0,"x_max":0,"o":"m 425 1017 b 69 1010 297 1015 121 1010 b 69 915 35 1010 32 915 b 381 915 129 915 268 904 b 278 -8 278 639 74 -8 b 322 50 318 -8 338 50 b 565 1000 224 50 557 974 b 425 1017 576 1036 461 1050 z "},"8":{"ha":589,"x_min":0,"x_max":0,"o":"m 408 579 b 311 1031 583 683 529 1031 b 194 569 74 1031 -17 657 b 294 -8 -14 440 -35 -8 b 408 579 604 -8 614 467 z m 301 949 b 294 624 417 949 431 624 b 301 949 146 624 182 949 z m 294 156 b 303 551 156 156 190 551 b 294 156 399 551 415 156 z "},"9":{"ha":633,"x_min":0,"x_max":0,"o":"m 307 1031 b 261 432 17 1031 -85 432 b 411 497 328 432 376 461 b 293 156 400 318 357 156 b 281 290 201 156 197 290 b 214 390 299 290 306 390 b 292 -8 40 390 56 -8 b 307 1031 586 -8 778 1031 z m 279 504 b 307 953 157 504 146 953 b 415 582 385 953 417 772 b 279 504 383 543 339 504 z "},"\u0000":{"ha":0,"x_min":0,"x_max":0,"o":""},"\r":{"ha":347,"x_min":0,"x_max":0,"o":""}," ":{"ha":361,"x_min":0,"x_max":0,"o":""},"!":{"ha":346,"x_min":0,"x_max":0,"o":"m 254 1029 b 72 1029 246 1063 67 1056 b 83 150 111 850 119 331 b 210 125 79 128 197 104 b 254 1029 300 290 299 854 z m 115 81 b 44 10 76 81 44 49 b 115 -62 44 -31 76 -62 b 186 10 154 -62 186 -31 b 115 81 186 49 154 81 z "},"\"":{"ha":508,"x_min":0,"x_max":0,"o":"m 188 1025 b 108 953 146 1025 108 993 b 131 901 108 933 117 914 b 83 876 124 888 111 876 b 83 832 74 876 69 832 b 188 1025 275 832 299 1025 z m 368 1025 b 288 953 325 1025 288 993 b 311 901 288 933 297 914 b 264 876 304 888 290 876 b 264 832 254 876 249 832 b 368 1025 456 832 478 1025 z "},"#":{"ha":738,"x_min":0,"x_max":0,"o":"m 575 1029 b 486 765 554 978 522 881 b 393 764 456 765 424 765 b 482 1029 428 879 461 976 b 368 1029 492 1056 381 1063 b 276 757 346 976 313 875 b 153 732 224 751 179 743 b 157 661 140 726 143 658 b 250 668 179 664 211 667 b 158 340 218 561 186 446 b 46 315 111 335 71 326 b 50 246 33 311 36 243 b 138 253 71 249 101 251 b 89 -1 110 140 92 47 b 182 6 88 -22 176 -17 b 244 256 192 57 215 149 b 346 256 278 257 313 257 b 297 -1 318 142 299 47 b 389 6 296 -22 385 -17 b 451 253 400 57 422 146 b 567 242 499 250 540 247 b 567 336 582 239 586 332 b 478 346 546 340 514 343 b 571 668 507 450 539 563 b 674 657 614 665 650 661 b 674 751 689 656 693 747 b 600 761 656 756 631 758 b 689 1029 636 876 668 975 b 575 1029 699 1056 589 1063 z m 369 350 b 271 347 336 350 303 349 b 365 672 300 453 333 567 b 458 671 396 672 428 672 b 369 350 428 567 396 454 z "},"$":{"ha":544,"x_min":0,"x_max":0,"o":"m 494 350 b 208 713 494 499 208 575 b 278 810 208 761 231 810 b 293 701 347 810 356 701 b 350 606 268 701 258 606 b 343 893 479 606 489 850 b 351 1029 346 950 349 997 b 238 1029 354 1056 242 1063 b 228 888 233 997 231 949 b 103 710 151 861 103 793 b 318 333 103 519 318 442 b 275 297 318 308 292 297 b 210 403 196 297 164 403 b 153 483 222 403 238 483 b 236 135 8 483 -1 167 b 254 -6 240 74 246 25 b 344 1 258 -26 347 -21 b 339 140 342 33 340 82 b 494 350 422 163 494 229 z "},"%":{"ha":651,"x_min":0,"x_max":0,"o":"m 446 568 b 396 550 428 568 411 561 b 549 1029 456 750 515 944 b 435 1029 560 1056 449 1063 b 343 753 414 976 379 874 b 214 1025 339 890 293 1025 b 204 450 42 1025 -10 450 b 261 469 225 450 244 457 b 157 -1 206 269 160 76 b 249 6 156 -22 244 -17 b 297 201 258 49 275 118 b 436 -7 307 89 349 -7 b 446 568 629 -7 610 568 z m 203 540 b 208 983 136 540 147 983 b 203 540 263 983 272 540 z m 436 83 b 440 528 369 83 381 528 b 436 83 494 528 506 83 z "},"&":{"ha":672,"x_min":0,"x_max":0,"o":"m 614 615 b 557 613 614 628 557 625 b 464 536 557 586 543 536 b 268 319 338 536 269 461 b 268 314 268 318 268 315 b 343 314 268 294 343 301 b 417 436 343 347 354 436 b 317 164 533 436 493 164 b 372 597 140 164 150 597 b 371 742 404 597 414 742 b 381 972 253 742 247 972 b 432 789 463 972 471 857 b 503 754 419 767 493 740 b 376 1051 586 867 538 1051 b 251 679 179 1051 124 813 b 307 0 -10 542 -18 0 b 485 476 578 0 635 394 b 506 478 492 476 499 478 b 614 615 599 478 614 567 z "},"'":{"ha":264,"x_min":0,"x_max":0,"o":"m 156 1025 b 76 953 113 1025 76 993 b 99 901 76 933 85 914 b 51 876 92 888 78 876 b 51 832 42 876 36 832 b 156 1025 243 832 265 1025 z "},"(":{"ha":358,"x_min":0,"x_max":0,"o":"m 314 1122 b 229 1143 329 1144 251 1165 b 200 -151 15 932 -43 175 b 282 -89 217 -174 297 -112 b 314 1122 101 192 131 843 z "},")":{"ha":397,"x_min":0,"x_max":0,"o":"m 44 1122 b 76 -89 228 843 257 192 b 158 -151 61 -112 142 -174 b 129 1143 401 175 343 932 b 44 1122 107 1165 29 1144 z "},"*":{"ha":361,"x_min":0,"x_max":0,"o":"m 313 915 b 249 928 299 921 275 925 b 293 969 265 946 281 961 b 239 1010 300 974 249 1015 b 181 954 224 1000 203 979 b 157 1025 168 982 160 1008 b 97 994 157 1033 96 1004 b 119 922 99 978 107 951 b 46 896 88 917 61 908 b 47 851 39 890 42 849 b 117 861 64 856 88 858 b 93 786 101 832 92 806 b 129 760 93 778 126 754 b 169 829 136 778 151 803 b 235 764 190 799 214 774 b 274 786 242 761 278 782 b 225 861 260 801 242 829 b 313 847 261 858 294 854 b 313 915 321 846 322 913 z "},"+":{"ha":522,"x_min":0,"x_max":0,"o":"m 443 558 b 303 571 414 565 361 571 b 318 743 306 644 310 711 b 203 743 321 754 207 757 b 189 568 194 711 189 643 b 49 538 129 564 76 554 b 51 467 39 533 42 465 b 189 478 81 474 132 476 b 219 272 192 390 201 307 b 310 276 225 263 313 265 b 301 478 304 313 300 392 b 443 464 360 475 413 471 b 443 558 454 461 457 554 z "},",":{"ha":264,"x_min":0,"x_max":0,"o":"m 156 128 b 76 57 113 128 76 96 b 99 6 76 36 85 18 b 51 -21 92 -8 78 -21 b 51 -64 42 -21 36 -64 b 156 128 243 -64 265 128 z "},"-":{"ha":597,"x_min":0,"x_max":0,"o":"m 510 419 b 510 514 521 417 524 510 b 115 493 433 533 188 535 b 118 422 106 488 108 421 b 510 419 196 439 431 438 z "},".":{"ha":228,"x_min":0,"x_max":0,"o":"m 185 71 b 114 143 185 111 153 143 b 43 71 75 143 43 111 b 114 0 43 32 75 0 b 185 71 153 0 185 32 z "},"/":{"ha":478,"x_min":0,"x_max":0,"o":"m 435 1029 b 321 1029 444 1056 335 1063 b 43 -1 250 854 50 165 b 135 6 42 -22 131 -17 b 435 1029 171 186 365 850 z "},":":{"ha":331,"x_min":0,"x_max":0,"o":"m 181 151 b 110 81 142 151 110 119 b 181 10 110 42 142 10 b 251 81 219 10 251 42 b 181 151 251 119 219 151 z m 181 439 b 251 510 219 439 251 471 b 181 581 251 550 219 581 b 110 510 142 581 110 550 b 181 439 110 471 142 439 z "},";":{"ha":314,"x_min":0,"x_max":0,"o":"m 164 439 b 236 510 204 439 236 471 b 164 581 236 550 204 581 b 93 510 125 581 93 550 b 164 439 93 471 125 439 z m 169 128 b 90 57 126 128 90 96 b 113 6 90 36 99 18 b 65 -21 106 -8 92 -21 b 65 -64 56 -21 50 -64 b 169 128 257 -64 279 128 z "},"<":{"ha":428,"x_min":0,"x_max":0,"o":"m 150 435 b 381 604 213 501 326 575 b 303 686 403 617 329 700 b 43 436 239 651 67 511 b 43 432 43 436 43 433 b 303 182 67 358 236 211 b 372 274 332 169 400 261 b 150 435 315 301 213 368 z "},"=":{"ha":597,"x_min":0,"x_max":0,"o":"m 118 422 b 510 419 196 439 431 438 b 510 514 521 417 524 510 b 115 493 433 533 188 535 b 118 422 106 488 108 421 z m 510 369 b 115 350 433 389 188 390 b 118 279 106 344 108 276 b 510 275 196 294 431 293 b 510 369 521 274 524 365 z "},">":{"ha":428,"x_min":0,"x_max":0,"o":"m 278 435 b 56 274 215 368 113 301 b 125 182 28 261 96 169 b 385 432 192 211 361 358 b 385 436 385 433 385 436 b 125 686 361 511 189 651 b 47 604 99 700 25 617 b 278 435 101 575 215 501 z "},"?":{"ha":578,"x_min":0,"x_max":0,"o":"m 231 125 b 160 53 192 125 160 93 b 231 -18 160 14 192 -18 b 301 53 269 -18 301 14 b 231 125 301 93 269 125 z m 167 678 b 260 946 72 678 78 946 b 371 804 338 946 371 886 b 174 189 371 592 174 446 b 288 189 174 143 288 147 b 535 782 288 389 535 529 b 304 1025 535 924 457 1025 b 165 632 -21 1025 -12 632 b 167 678 188 632 194 678 z "},"@":{"ha":1078,"x_min":0,"x_max":0,"o":"m 578 1051 b 593 -14 -69 1051 -204 -14 b 596 60 633 -14 626 60 b 578 968 10 60 115 968 b 799 263 969 968 906 263 b 750 794 699 263 746 763 b 593 803 751 810 629 815 b 519 833 576 819 553 833 b 425 210 210 833 238 210 b 590 465 503 210 556 339 b 794 190 611 318 665 190 b 578 1051 1103 190 1156 1051 z m 461 344 b 528 764 396 344 418 764 b 578 693 556 764 571 725 b 461 344 560 588 513 344 z "},"A":{"ha":851,"x_min":0,"x_max":0,"o":"m 910 404 b 850 401 910 451 856 450 b 779 161 840 318 825 161 b 718 685 719 161 693 454 b 456 1083 743 914 664 1083 b 164 589 -17 1083 -65 589 b 281 710 294 589 303 710 b 424 1010 151 710 238 1010 b 510 982 460 1010 489 1000 b 204 218 292 904 371 218 b 197 274 160 218 154 274 b 138 332 207 274 206 332 b 186 0 -54 332 -49 0 b 439 372 361 0 417 178 b 554 368 475 371 519 369 b 710 -3 561 182 600 -3 b 910 404 889 -3 911 338 z m 449 474 b 535 869 463 678 458 869 b 571 824 554 869 565 847 b 565 664 575 778 572 722 b 553 474 558 614 554 546 b 449 474 514 475 478 475 z "},"B":{"ha":908,"x_min":0,"x_max":0,"o":"m 625 618 b 425 1094 886 743 815 1094 b 133 599 -47 1094 -96 599 b 250 721 264 599 272 721 b 358 1013 133 721 174 967 b 317 864 333 986 318 935 b 319 222 313 592 314 347 b 329 108 321 176 325 139 b 271 326 229 163 263 308 b 225 375 281 350 263 375 b 440 -12 85 375 51 -12 b 625 618 857 -12 1056 494 z m 472 656 b 479 876 475 756 478 842 b 447 1019 485 949 472 997 b 472 656 696 1001 654 713 z m 463 92 b 471 240 468 126 472 174 b 471 571 469 308 469 442 b 463 92 785 524 749 126 z "},"C":{"ha":644,"x_min":0,"x_max":0,"o":"m 704 407 b 644 404 704 454 650 454 b 378 153 635 322 568 153 b 378 997 0 153 189 997 b 385 593 468 997 493 593 b 389 711 340 593 336 711 b 346 775 404 711 408 775 b 385 474 226 775 201 474 b 365 1082 656 474 665 1082 b 339 0 -12 1082 -207 0 b 704 407 653 0 706 340 z "},"D":{"ha":933,"x_min":0,"x_max":0,"o":"m 425 1094 b 133 599 -47 1094 -96 599 b 250 721 264 599 272 721 b 358 1013 133 721 172 967 b 317 864 333 986 317 935 b 318 222 311 592 314 347 b 329 108 321 176 324 139 b 269 326 229 163 263 308 b 225 375 279 350 261 375 b 440 -12 85 375 50 -12 b 425 1094 1056 -12 1032 1094 z m 461 92 b 471 240 468 126 472 174 b 479 876 467 381 474 790 b 447 1019 485 947 472 996 b 461 92 818 982 844 149 z "},"E":{"ha":613,"x_min":0,"x_max":0,"o":"m 613 404 b 344 153 601 322 543 153 b 293 431 129 153 113 431 b 286 539 350 431 353 539 b 344 997 88 539 168 997 b 351 690 435 997 461 690 b 357 807 307 690 303 807 b 313 871 372 807 376 871 b 353 569 193 871 169 569 b 333 1082 624 569 633 1082 b 135 508 29 1082 -33 601 b 307 0 -82 404 -46 0 b 672 407 621 0 672 340 b 613 404 671 454 618 454 z "},"F":{"ha":626,"x_min":0,"x_max":0,"o":"m 757 1204 b 724 1190 740 1204 724 1200 b 425 1089 724 1131 593 1089 b 133 593 -47 1089 -96 593 b 250 715 263 593 271 715 b 375 1011 129 715 175 975 b 313 583 319 921 306 754 b 292 582 306 583 299 583 b 217 528 233 578 217 558 b 299 475 217 500 228 472 b 319 475 304 475 313 475 b 321 461 321 471 321 465 b 226 118 344 232 319 118 b 325 0 201 118 213 0 b 483 471 435 0 508 118 b 501 471 490 471 497 471 b 583 529 553 469 583 494 b 519 583 583 567 558 583 b 474 585 504 585 489 585 b 489 1011 460 761 446 947 b 658 997 542 1007 581 997 b 757 1204 864 997 883 1204 z "},"G":{"ha":729,"x_min":0,"x_max":0,"o":"m 617 525 b 526 432 564 525 528 490 b 524 342 525 401 525 371 b 317 153 499 257 439 153 b 388 997 35 153 165 997 b 394 593 499 997 504 593 b 399 711 350 593 346 711 b 356 775 414 711 419 775 b 396 474 236 775 213 474 b 375 1082 667 474 675 1082 b 292 0 -39 1082 -169 0 b 526 132 408 0 482 58 b 529 88 526 115 528 100 b 606 -26 536 -1 563 -26 b 681 96 646 -26 685 -10 b 690 439 678 172 683 393 b 617 525 697 494 667 525 z "},"H":{"ha":879,"x_min":0,"x_max":0,"o":"m 939 404 b 878 401 938 451 885 450 b 807 161 868 318 853 161 b 819 1007 735 161 806 924 b 653 997 835 1104 675 1131 b 607 567 639 911 617 742 b 469 567 556 568 508 568 b 476 876 472 693 476 832 b 317 1104 476 971 467 1104 b 131 599 -18 1104 -99 599 b 246 721 260 599 268 721 b 272 1013 129 721 164 1013 b 313 864 314 1013 314 935 b 311 399 310 694 311 594 b 207 115 311 204 292 115 b 306 -3 182 115 193 -3 b 468 399 485 -3 468 267 b 468 465 468 418 468 440 b 603 460 514 464 571 461 b 738 -3 597 219 624 -3 b 939 404 917 -3 939 338 z "},"I":{"ha":519,"x_min":0,"x_max":0,"o":"m 476 876 b 318 1104 476 971 467 1104 b 131 599 -17 1104 -97 599 b 247 721 261 599 269 721 b 274 1013 131 721 164 1013 b 313 864 314 1013 314 935 b 311 399 310 694 311 594 b 208 115 311 204 292 115 b 306 -3 182 115 194 -3 b 468 399 486 -3 468 267 b 476 876 468 531 476 808 z "},"J":{"ha":583,"x_min":0,"x_max":0,"o":"m 540 876 b 382 1104 540 971 531 1104 b 194 599 47 1104 -33 599 b 311 721 325 599 333 721 b 338 1013 194 721 228 1013 b 376 864 378 1013 378 935 b 269 101 369 438 401 101 b 236 361 165 101 167 361 b 164 489 267 361 289 489 b 246 -3 -68 489 -61 -3 b 533 540 558 -3 533 411 b 540 876 536 674 540 829 z "},"K":{"ha":903,"x_min":0,"x_max":0,"o":"m 961 404 b 901 401 961 451 907 450 b 829 161 890 318 876 161 b 546 551 750 161 592 458 b 761 868 589 669 675 868 b 800 850 785 868 783 850 b 757 1079 853 850 903 1079 b 472 699 642 1079 535 857 b 475 876 474 778 475 847 b 317 1104 475 971 465 1104 b 129 599 -18 1104 -99 599 b 246 721 260 599 268 721 b 272 1013 129 721 163 1013 b 313 864 314 1013 313 935 b 310 399 310 694 310 594 b 207 115 310 204 292 115 b 304 -3 181 115 193 -3 b 467 399 485 -3 467 267 b 467 400 467 399 467 400 b 761 -3 533 244 661 -3 b 961 404 939 -3 961 338 z "},"L":{"ha":958,"x_min":0,"x_max":0,"o":"m 876 213 b 699 140 840 213 792 140 b 467 222 631 140 553 194 b 467 226 467 224 467 225 b 475 876 464 367 475 782 b 317 1104 475 971 465 1104 b 131 599 -18 1104 -99 599 b 246 721 260 599 268 721 b 272 1013 129 721 163 1013 b 313 864 314 1013 314 935 b 314 233 308 608 310 364 b 301 -3 150 194 163 -3 b 442 86 372 -3 417 38 b 746 -15 550 60 575 -15 b 876 213 954 -15 936 213 z "},"M":{"ha":1121,"x_min":0,"x_max":0,"o":"m 1181 404 b 1119 401 1179 451 1126 450 b 1049 161 1110 318 1096 161 b 1000 1040 958 161 1001 1001 b 782 1081 999 1113 833 1154 b 660 631 681 938 674 758 b 317 1104 631 796 531 1104 b 131 599 -18 1104 -99 599 b 246 721 260 599 268 721 b 272 1013 129 721 163 1013 b 306 1007 285 1013 296 1011 l 299 1007 b 297 399 296 849 297 586 b 194 115 297 204 278 115 b 292 -3 168 115 181 -3 b 454 399 472 -3 454 267 b 425 864 454 482 439 707 b 551 365 507 688 542 411 b 718 365 567 290 711 311 b 826 896 725 418 800 896 b 979 -3 865 896 694 -3 b 1181 404 1158 -3 1181 338 z "},"N":{"ha":861,"x_min":0,"x_max":0,"o":"m 744 1083 b 654 911 692 1083 656 1019 b 653 399 651 714 651 531 l 475 922 b 317 1107 469 1010 444 1107 b 131 603 -18 1107 -99 603 b 246 724 260 603 268 724 b 272 1017 129 724 163 1017 b 313 868 314 1017 314 938 b 311 401 310 697 311 597 b 207 118 311 207 292 118 b 304 0 182 118 193 0 b 467 401 485 0 467 271 b 469 596 467 451 468 522 b 726 0 528 367 633 0 b 808 175 776 0 808 79 b 818 924 808 315 811 838 b 744 1083 825 1028 794 1083 z "},"O":{"ha":642,"x_min":0,"x_max":0,"o":"m 307 1082 b 88 685 132 1082 64 869 b 276 0 -57 504 -37 0 b 307 1082 719 0 685 1082 z m 283 164 b 288 635 110 164 101 635 b 206 749 310 635 314 749 b 200 749 204 749 201 749 b 299 1008 190 853 229 1008 b 283 164 467 1008 560 164 z "},"P":{"ha":839,"x_min":0,"x_max":0,"o":"m 425 1094 b 133 599 -47 1094 -96 599 b 250 721 264 599 272 721 b 358 1013 133 721 172 967 b 315 864 332 986 317 935 b 311 401 314 767 311 474 b 208 118 311 207 293 118 b 306 0 183 118 194 0 b 468 401 486 0 468 271 b 468 407 468 403 468 406 b 425 1094 904 461 924 1094 z m 469 482 b 479 876 472 610 476 843 b 447 1019 485 949 472 996 b 469 482 738 994 706 549 z "},"Q":{"ha":644,"x_min":0,"x_max":0,"o":"m 543 11 b 456 -33 522 11 496 -33 b 349 11 424 -33 389 -12 b 307 1082 713 122 663 1082 b 88 685 132 1082 64 869 b 117 58 -28 542 -39 196 b 24 -86 3 26 4 -86 b 114 -49 46 -86 56 -49 b 438 -224 268 -49 256 -224 b 543 11 626 -224 640 11 z m 299 1008 b 282 164 465 1008 558 164 b 288 635 110 164 100 635 b 206 749 310 635 313 749 b 200 749 203 749 201 749 b 299 1008 189 853 228 1008 z "},"R":{"ha":889,"x_min":0,"x_max":0,"o":"m 949 407 b 889 404 949 454 894 454 b 817 164 879 322 864 164 b 574 478 749 164 632 368 b 425 1094 904 601 881 1094 b 135 599 -46 1094 -94 599 b 250 721 264 599 272 721 b 358 1013 133 721 174 967 b 317 864 333 986 318 935 b 313 401 315 767 313 474 b 210 118 313 207 293 118 b 307 0 183 118 196 0 b 469 368 472 0 471 229 b 749 0 539 213 656 0 b 949 407 926 0 949 340 z m 471 528 b 481 876 474 658 478 846 b 447 1019 485 949 472 997 b 471 528 739 997 707 589 z "},"S":{"ha":683,"x_min":0,"x_max":0,"o":"m 367 1082 b 104 788 194 1082 104 929 b 458 258 104 549 458 397 b 332 164 458 199 410 164 b 233 406 182 164 161 406 b 138 488 251 406 226 488 b 322 0 -62 488 -76 0 b 640 253 542 0 640 139 b 257 833 640 558 257 497 b 372 1015 257 903 307 1015 b 346 797 436 1015 408 797 b 419 685 313 797 300 685 b 367 1082 649 685 651 1082 z "},"T":{"ha":529,"x_min":0,"x_max":0,"o":"m 757 1204 b 724 1190 740 1204 724 1200 b 425 1089 724 1131 593 1089 b 133 593 -47 1089 -96 593 b 250 715 263 593 271 715 b 375 1011 129 715 175 975 b 321 461 307 900 301 668 b 226 118 344 232 319 118 b 325 0 201 118 213 0 b 482 481 436 0 510 119 b 489 1011 467 681 438 935 b 658 997 542 1007 581 997 b 757 1204 864 997 883 1204 z "},"U":{"ha":878,"x_min":0,"x_max":0,"o":"m 938 407 b 878 404 938 454 883 454 b 806 164 868 322 853 164 b 818 1010 733 164 806 928 b 653 1001 833 1108 675 1135 b 604 289 631 867 589 533 b 517 186 583 242 550 186 b 476 879 442 186 463 460 b 318 1107 479 974 467 1107 b 131 603 -17 1107 -97 603 b 247 724 261 603 269 724 b 274 1017 131 724 164 1017 b 313 868 315 1017 315 938 b 428 0 301 307 264 0 b 618 175 519 0 581 93 b 738 0 636 71 674 0 b 938 407 915 0 938 340 z "},"V":{"ha":908,"x_min":0,"x_max":0,"o":"m 693 1142 b 610 1021 589 1142 575 1021 b 563 161 758 1021 651 161 b 317 1104 478 161 579 1104 b 131 599 -18 1104 -99 599 b 246 721 260 599 268 721 b 272 1013 129 721 163 1013 b 550 -3 383 1013 264 -3 b 693 1142 803 -3 1038 1142 z "},"W":{"ha":1264,"x_min":0,"x_max":0,"o":"m 1049 1142 b 964 1021 944 1142 929 1021 b 917 161 1114 1021 1007 161 b 707 1040 833 161 971 1040 b 603 949 622 1040 583 949 b 683 713 651 949 671 849 b 563 161 676 465 617 161 b 318 1104 479 161 581 1104 b 131 599 -17 1104 -97 599 b 247 721 261 599 269 721 b 274 1013 131 721 164 1013 b 550 -3 385 1013 264 -3 b 742 204 619 -3 686 82 b 904 -3 771 83 818 -3 b 1049 1142 1158 -3 1392 1142 z "},"X":{"ha":894,"x_min":0,"x_max":0,"o":"m 953 404 b 893 401 953 451 899 450 b 821 161 882 318 868 161 b 597 611 717 161 663 383 b 754 911 646 776 693 911 b 789 883 781 911 769 883 b 750 1079 824 883 869 1079 b 531 826 651 1079 583 968 b 292 1099 474 979 403 1099 b 132 593 -19 1099 -96 593 b 249 715 263 593 271 715 b 275 1007 132 715 165 1007 b 444 546 340 1007 385 783 b 271 197 392 360 344 197 b 217 231 239 197 233 231 b 279 -3 165 231 136 -3 b 508 315 379 -3 450 140 b 753 -3 567 138 642 -3 b 953 404 931 -3 953 338 z "},"Y":{"ha":844,"x_min":0,"x_max":0,"o":"m 801 850 b 721 1079 801 1043 761 1078 b 638 850 679 1079 638 1051 b 639 750 638 824 639 790 b 519 572 618 699 564 572 b 476 871 467 572 476 717 b 318 1099 476 965 467 1099 b 131 593 -17 1099 -97 593 b 247 715 261 593 269 715 b 274 1007 131 715 164 1007 b 313 858 315 1007 313 929 b 444 407 313 667 281 407 b 639 578 546 407 606 494 b 531 -11 638 315 621 -11 b 499 249 428 -11 429 249 b 426 376 528 249 551 376 b 508 -117 193 376 201 -117 b 796 428 819 -117 796 297 b 801 850 797 526 801 656 z "},"Z":{"ha":800,"x_min":0,"x_max":0,"o":"m 718 213 b 553 140 685 213 639 140 b 367 211 497 140 435 182 b 625 922 396 308 481 582 b 700 1124 756 935 807 1124 b 567 1057 650 1124 606 1099 b 299 1099 463 1075 368 1099 b 140 593 -36 1099 -89 593 b 256 715 269 593 278 715 b 275 1007 139 715 165 1007 b 488 939 331 1007 390 963 b 243 239 406 781 342 519 b 183 -3 40 235 40 -3 b 314 86 249 -3 290 38 b 596 -15 414 60 438 -15 b 718 213 790 -15 774 213 z "},"[":{"ha":394,"x_min":0,"x_max":0,"o":"m 336 -44 b 163 -56 303 -57 219 -61 b 167 1082 149 160 151 871 b 318 1068 221 1085 288 1068 b 318 1165 339 1068 340 1154 b 57 1136 268 1192 61 1181 b 85 -140 35 1083 32 -114 b 336 -156 131 -176 296 -172 b 336 -44 358 -146 357 -36 z "},"\\":{"ha":478,"x_min":0,"x_max":0,"o":"m 43 1029 b 343 6 113 850 307 186 b 435 -1 347 -17 436 -22 b 157 1029 428 165 228 854 b 43 1029 143 1063 33 1056 z "},"]":{"ha":418,"x_min":0,"x_max":0,"o":"m 58 -44 b 58 -156 38 -36 36 -146 b 310 -140 99 -172 264 -176 b 338 1136 363 -114 360 1083 b 76 1165 333 1181 126 1192 b 76 1068 54 1154 56 1068 b 228 1082 107 1068 174 1085 b 232 -56 243 871 246 160 b 58 -44 175 -61 92 -57 z "},"^":{"ha":592,"x_min":0,"x_max":0,"o":"m 296 918 b 467 686 363 856 436 742 b 547 765 478 665 563 739 b 297 1025 514 828 372 1001 b 293 1025 297 1025 294 1025 b 43 765 219 1001 74 831 b 136 694 31 735 124 668 b 296 918 163 751 229 856 z "},"_":{"ha":494,"x_min":0,"x_max":0,"o":"m 443 -107 b 443 -12 454 -108 457 -17 b 49 -32 367 7 121 8 b 51 -103 39 -37 42 -106 b 443 -107 129 -87 364 -89 z "},"`":{"ha":286,"x_min":0,"x_max":0,"o":"m 168 851 b 243 932 176 831 250 906 b 96 1025 228 982 167 1036 b 46 965 71 1021 33 971 b 168 851 93 947 147 899 z "},"a":{"ha":603,"x_min":0,"x_max":0,"o":"m 664 407 b 603 404 663 454 610 454 b 532 164 593 322 579 164 b 540 690 472 164 526 608 b 382 713 554 779 422 810 b 282 763 363 739 331 763 b 167 0 -96 763 -62 0 b 339 215 242 0 299 99 b 463 0 349 93 382 0 b 664 407 642 0 664 340 z m 211 164 b 293 678 132 164 158 678 b 354 590 326 678 344 629 b 211 164 332 461 274 164 z "},"b":{"ha":551,"x_min":0,"x_max":0,"o":"m 339 763 b 157 556 254 763 197 669 b 165 865 158 690 163 821 b 93 1025 174 969 142 1025 b 1 854 39 1025 4 961 b 4 213 -3 582 -1 336 b 82 0 11 47 39 0 b 133 38 100 0 119 7 b 224 0 154 17 183 0 b 339 763 601 0 568 763 z m 229 157 b 167 253 194 157 176 213 b 313 671 200 417 258 671 b 229 157 392 671 365 157 z "},"c":{"ha":501,"x_min":0,"x_max":0,"o":"m 561 407 b 501 404 561 454 507 454 b 292 153 492 322 447 153 b 296 678 94 153 161 678 b 251 549 351 678 285 549 b 315 461 233 549 229 461 b 285 763 469 461 471 763 b 253 0 -93 763 -92 0 b 561 407 567 0 563 340 z "},"d":{"ha":603,"x_min":0,"x_max":0,"o":"m 664 407 b 603 404 663 454 610 454 b 532 164 593 322 579 164 b 563 957 460 164 549 875 b 396 949 578 1056 418 1082 b 364 732 388 897 375 821 b 282 763 344 750 318 763 b 167 0 -96 763 -62 0 b 340 218 242 0 299 100 b 463 0 353 90 388 0 b 664 407 642 0 664 340 z m 211 164 b 293 678 132 164 158 678 b 350 606 322 678 339 640 b 343 531 347 581 344 556 b 211 164 315 388 265 164 z "},"e":{"ha":501,"x_min":0,"x_max":0,"o":"m 561 407 b 501 404 561 454 507 454 b 292 153 492 322 447 153 b 178 272 231 153 194 203 b 285 763 418 306 533 763 b 253 0 -93 763 -92 0 b 561 407 567 0 563 340 z m 296 678 b 168 357 364 678 303 411 b 296 678 164 504 218 678 z "},"f":{"ha":432,"x_min":0,"x_max":0,"o":"m 251 1042 b 8 668 97 1042 29 903 b -32 665 -8 668 -22 667 b -108 606 -92 660 -108 639 b -26 547 -108 575 -97 543 b 1 547 -19 547 -10 547 b 8 156 -6 381 3 235 b 85 0 15 35 42 0 b 160 168 124 0 164 24 b 157 543 157 243 157 424 b 176 542 165 542 172 542 b 258 607 228 540 258 568 b 194 668 258 649 233 667 b 160 669 183 668 172 668 b 250 958 167 793 182 958 b 213 811 306 958 271 811 b 278 721 193 811 201 721 b 251 1042 417 721 458 1042 z "},"g":{"ha":581,"x_min":0,"x_max":0,"o":"m 524 704 b 361 735 513 815 392 800 b 281 763 342 751 315 763 b 167 0 -97 763 -62 0 b 361 286 256 0 319 140 b 171 -236 350 36 304 -236 b 76 -96 124 -236 86 -179 b -15 -110 69 -47 -15 -62 b 189 -356 -17 -176 10 -356 b 524 704 590 -356 549 453 z m 210 164 b 293 678 131 164 157 678 b 353 590 326 678 344 629 b 210 164 331 461 272 164 z "},"h":{"ha":581,"x_min":0,"x_max":0,"o":"m 640 407 b 581 404 640 454 586 454 b 510 164 571 322 556 164 b 375 763 435 164 614 763 b 157 600 274 763 204 693 b 165 865 160 718 163 826 b 92 1025 172 969 142 1025 b 1 854 39 1025 3 961 b 4 213 -3 582 -1 336 b 81 0 11 47 38 0 b 156 229 121 0 160 32 b 156 272 156 242 156 257 b 314 671 196 438 263 671 b 440 0 372 671 214 0 b 640 407 619 0 642 340 z "},"i":{"ha":288,"x_min":0,"x_max":0,"o":"m 349 407 b 288 404 347 454 294 454 b 217 164 278 322 263 164 b 182 688 157 164 176 583 b 17 678 188 786 28 793 b 147 0 -8 444 -32 0 b 349 407 326 0 349 340 z m 131 831 b 217 915 178 831 217 868 b 131 1001 217 963 178 1001 b 46 915 83 1001 46 963 b 131 831 46 868 83 831 z "},"j":{"ha":215,"x_min":0,"x_max":0,"o":"m 158 704 b -11 690 146 839 -26 789 b -194 -236 1 608 40 -236 b -289 -96 -242 -236 -279 -179 b -381 -110 -296 -47 -381 -62 b -176 -356 -382 -176 -356 -356 b 158 704 225 -356 183 453 z m 44 831 b 129 915 92 831 129 868 b 44 1001 129 963 92 1001 b -42 915 -3 1001 -42 963 b 44 831 -42 868 -3 831 z "},"k":{"ha":553,"x_min":0,"x_max":0,"o":"m 613 407 b 553 404 613 454 558 454 b 481 164 543 322 528 164 b 228 474 403 164 271 396 b 360 583 267 535 313 583 b 422 549 400 583 406 549 b 379 746 475 549 525 746 b 157 528 290 746 211 632 b 165 865 158 672 161 818 b 93 1025 172 969 142 1025 b 1 854 39 1025 4 961 b 4 213 -3 582 -1 336 b 81 0 11 47 39 0 b 156 229 121 0 161 32 b 156 324 156 253 156 286 b 407 0 192 228 290 6 b 413 0 408 0 410 0 b 613 407 590 0 613 340 z "},"l":{"ha":267,"x_min":0,"x_max":0,"o":"m 60 949 b 126 0 22 725 -86 0 b 326 407 306 0 328 340 b 267 404 326 454 274 454 b 196 164 257 322 242 164 b 225 957 124 164 213 875 b 60 949 240 1056 82 1082 z "},"m":{"ha":888,"x_min":0,"x_max":0,"o":"m 949 407 b 888 404 947 454 894 454 b 817 164 878 322 864 164 b 682 763 742 164 922 763 b 486 638 596 763 532 711 b 375 763 467 710 433 763 b 164 611 279 763 211 699 b 165 638 164 622 165 631 b 93 754 174 714 143 754 b 3 628 40 754 4 708 b 4 156 -3 428 0 247 b 82 0 13 35 39 0 b 157 168 121 0 161 24 b 156 272 156 193 156 231 b 315 671 197 436 264 671 b 315 246 350 671 315 410 b 397 0 315 82 331 0 b 501 243 479 0 496 88 b 507 436 503 279 507 354 b 622 671 543 558 586 671 b 747 0 679 671 522 0 b 949 407 926 0 949 340 z "},"n":{"ha":581,"x_min":0,"x_max":0,"o":"m 640 407 b 581 404 640 454 586 454 b 510 164 571 322 556 164 b 375 763 435 164 614 763 b 163 611 278 763 210 699 b 165 638 164 622 164 631 b 92 754 172 714 142 754 b 1 628 39 754 3 708 b 4 156 -3 428 -1 247 b 81 0 11 35 38 0 b 156 168 121 0 160 24 b 154 272 156 193 154 231 b 314 671 196 436 263 671 b 440 0 372 671 214 0 b 640 407 619 0 642 340 z "},"o":{"ha":597,"x_min":0,"x_max":0,"o":"m 658 407 b 597 404 657 454 604 454 b 533 310 596 388 594 324 b 292 760 565 521 490 760 b 269 0 -101 760 -90 0 b 511 221 389 0 471 96 b 658 407 649 231 658 388 z m 272 165 b 285 674 132 165 160 674 b 379 456 340 674 372 569 b 340 469 368 464 357 469 b 360 261 272 469 260 333 b 272 165 342 204 314 165 z "},"p":{"ha":551,"x_min":0,"x_max":0,"o":"m 339 763 b 164 575 260 763 204 679 b 165 594 164 583 165 589 b 93 754 174 699 142 754 b 1 582 39 754 4 690 b 4 -60 -3 311 -1 65 b 82 -271 11 -224 39 -271 b 156 -42 121 -271 161 -239 b 156 19 156 -25 156 -4 b 224 0 174 7 196 0 b 339 763 601 0 568 763 z m 229 157 b 167 253 194 157 176 213 b 313 671 200 417 258 671 b 229 157 392 671 365 157 z "},"q":{"ha":553,"x_min":0,"x_max":0,"o":"m 444 786 b 372 726 413 786 388 765 b 282 763 351 746 324 763 b 168 0 -96 763 -61 0 b 350 246 249 0 308 115 b 356 -26 351 132 353 38 b 432 -239 363 -192 390 -239 b 507 -10 472 -239 513 -207 b 517 628 504 132 510 542 b 444 786 524 732 493 786 z m 213 164 b 294 678 132 164 158 678 b 353 599 325 678 343 635 b 353 575 353 590 353 583 b 213 164 329 440 272 164 z "},"r":{"ha":467,"x_min":0,"x_max":0,"o":"m 304 761 b 164 689 242 761 196 728 b 92 754 156 732 129 754 b 1 628 39 754 3 708 b 4 156 -3 428 -1 247 b 81 0 11 35 39 0 b 156 168 121 0 161 24 b 160 511 154 238 156 394 b 275 678 185 582 226 678 b 238 531 331 678 297 531 b 304 440 219 531 228 440 b 304 761 443 440 483 761 z "},"s":{"ha":486,"x_min":0,"x_max":0,"o":"m 103 350 b 226 0 -47 350 -50 0 b 444 217 333 0 444 68 b 158 578 444 365 158 442 b 229 674 158 626 182 674 b 243 567 297 674 306 567 b 299 471 219 567 208 471 b 249 764 440 471 439 764 b 54 575 132 764 54 681 b 268 201 54 386 268 308 b 225 164 268 176 242 164 b 161 269 146 164 114 269 b 103 350 172 269 189 350 z "},"t":{"ha":265,"x_min":0,"x_max":0,"o":"m 325 407 b 265 404 325 454 271 454 b 193 164 256 322 240 164 b 178 543 157 164 163 350 b 193 542 183 542 189 542 b 275 607 244 540 275 568 b 211 668 275 649 250 667 b 189 668 204 668 197 668 b 224 957 203 806 219 926 b 58 949 239 1056 81 1082 b 18 668 47 885 31 783 b -17 665 6 668 -7 667 b -92 606 -75 660 -92 639 b -10 547 -92 575 -81 543 b 7 547 -6 547 0 547 b 125 0 -15 282 -8 0 b 325 407 303 0 325 340 z "},"u":{"ha":572,"x_min":0,"x_max":0,"o":"m 632 407 b 572 404 632 454 578 454 b 500 164 561 322 547 164 b 508 690 442 164 496 608 b 342 682 524 789 364 815 b 306 354 328 594 311 471 b 213 164 279 253 247 164 b 186 676 138 164 175 556 b 108 753 192 735 150 753 b 14 682 65 751 21 735 b 169 0 0 579 -49 0 b 315 150 229 0 278 64 b 432 0 332 61 365 0 b 632 407 610 0 632 340 z "},"v":{"ha":500,"x_min":0,"x_max":0,"o":"m 500 404 b 388 310 497 385 496 293 b 389 318 388 313 389 315 b 346 774 429 492 443 774 b 283 296 251 774 201 449 b 211 164 264 221 239 164 b 186 676 136 164 174 556 b 107 753 192 735 149 753 b 13 682 64 751 19 735 b 190 0 -1 579 -49 0 b 369 224 286 0 339 103 b 399 219 379 221 389 219 b 560 407 550 219 560 388 b 500 404 560 454 506 454 z "},"w":{"ha":833,"x_min":0,"x_max":0,"o":"m 833 404 b 722 310 831 385 831 293 b 724 318 722 313 722 315 b 679 774 764 492 776 774 b 618 296 586 774 535 449 b 546 164 597 221 574 164 b 519 676 469 164 508 556 b 442 753 525 735 482 753 b 346 682 397 751 354 735 b 338 585 344 663 340 628 b 211 164 319 453 272 164 b 185 676 135 164 174 556 b 107 753 190 735 147 753 b 13 682 63 751 19 735 b 190 0 -1 579 -50 0 b 360 188 275 0 328 83 b 524 0 385 81 435 0 b 704 224 619 0 674 103 b 733 219 713 221 722 219 b 893 407 885 219 893 388 b 833 404 893 454 840 454 z "},"x":{"ha":576,"x_min":0,"x_max":0,"o":"m 636 407 b 576 404 636 454 582 454 b 504 164 567 322 551 164 b 386 376 451 164 419 260 b 472 797 549 556 649 797 b 388 711 371 797 344 711 b 351 496 424 711 479 639 b 154 790 308 646 254 790 b -4 381 28 790 4 463 b 58 382 -8 343 50 333 b 136 674 65 431 96 674 b 221 374 163 674 185 529 b 110 0 33 193 -29 0 b 194 81 207 0 214 81 b 257 239 172 81 185 144 b 436 0 297 108 353 0 b 636 407 614 0 636 340 z "},"y":{"ha":526,"x_min":0,"x_max":0,"o":"m 469 704 b 300 690 457 839 285 789 b 310 371 306 660 313 528 b 213 164 283 263 249 164 b 186 676 136 164 175 556 b 108 753 192 735 149 753 b 13 682 64 751 19 735 b 168 0 -1 579 -49 0 b 292 103 217 0 258 42 b 117 -236 268 -82 217 -236 b 22 -96 69 -236 32 -179 b -69 -110 15 -47 -69 -62 b 135 -356 -71 -176 -44 -356 b 469 704 536 -356 494 453 z "},"z":{"ha":508,"x_min":0,"x_max":0,"o":"m 282 186 b 269 749 467 399 549 749 b -3 381 10 749 6 463 b 60 382 -7 343 51 333 b 258 672 67 431 97 672 b 110 189 428 672 244 332 b 146 38 44 119 79 38 b 238 81 164 38 181 81 b 217 -236 428 81 397 -236 b 122 -96 171 -236 132 -179 b 31 -110 117 -47 31 -62 b 235 -356 31 -176 57 -356 b 282 186 579 -356 606 271 z "},"{":{"ha":414,"x_min":0,"x_max":0,"o":"m 354 1149 b 136 806 164 1149 136 928 b 69 564 136 683 124 564 b 69 475 31 564 39 475 b 136 278 100 475 136 394 b 333 -111 136 161 139 -111 b 335 -35 356 -111 368 -35 b 250 283 215 -35 250 138 b 149 517 250 490 149 517 b 254 806 149 517 254 565 b 358 1075 254 951 233 1075 b 354 1149 376 1075 375 1149 z "},"|":{"ha":221,"x_min":0,"x_max":0,"o":"m 172 1029 b 57 1029 175 1056 61 1063 b 74 -6 36 854 33 161 b 164 1 78 -26 167 -21 b 172 1029 150 182 153 850 z "},"}":{"ha":446,"x_min":0,"x_max":0,"o":"m 60 1149 b 56 1075 39 1149 38 1075 b 160 806 181 1075 160 951 b 265 517 160 565 265 517 b 164 283 265 517 164 490 b 79 -35 164 138 199 -35 b 81 -111 46 -35 58 -111 b 278 278 275 -111 278 161 b 344 475 278 394 314 475 b 344 564 375 475 383 564 b 278 806 290 564 278 683 b 60 1149 278 928 250 1149 z "},"~":{"ha":533,"x_min":0,"x_max":0,"o":"m 110 504 b 146 507 110 492 146 494 b 199 547 146 529 171 547 b 349 476 236 547 279 476 b 454 611 429 476 454 578 b 421 613 454 625 421 626 b 357 557 421 581 376 557 b 206 633 304 557 271 633 b 110 504 133 633 110 549 z "},"¡":{"ha":325,"x_min":0,"x_max":0,"o":"m 208 865 b 82 839 196 886 78 863 b 71 -40 118 660 110 139 b 253 -40 65 -67 244 -72 b 208 865 297 135 299 699 z m 185 981 b 114 1051 185 1019 153 1051 b 43 981 75 1051 43 1019 b 114 910 43 942 75 910 b 185 981 153 910 185 942 z "},"¢":{"ha":619,"x_min":0,"x_max":0,"o":"m 576 542 b 517 539 576 590 522 589 b 306 289 506 457 463 289 b 311 813 110 289 175 813 b 267 685 367 813 300 685 b 331 596 249 685 244 596 b 338 893 474 596 485 856 b 346 1029 339 950 342 997 b 231 1029 349 1056 235 1063 b 221 886 228 997 224 947 b 229 139 -64 793 -53 190 b 247 -6 233 76 239 25 b 338 1 253 -26 340 -21 b 332 140 335 33 333 82 b 576 542 582 183 576 481 z "},"£":{"ha":650,"x_min":0,"x_max":0,"o":"m 585 100 b 376 133 518 100 449 117 b 392 217 386 157 392 185 b 358 432 392 272 376 350 b 478 419 408 429 453 425 b 478 514 490 417 493 510 b 338 526 450 521 396 525 b 301 743 318 611 301 690 b 428 954 301 867 335 954 b 483 661 525 954 533 797 b 549 642 476 643 542 628 b 403 1029 588 722 653 1029 b 156 719 251 1029 156 892 b 181 518 156 667 167 594 b 83 493 139 513 104 504 b 88 422 75 488 78 421 b 196 432 111 428 151 431 b 232 189 214 336 232 243 b 231 163 232 179 232 171 b 146 168 203 167 175 168 b 139 0 18 168 3 0 b 322 60 186 0 265 13 b 576 0 404 31 499 0 b 585 100 614 0 618 100 z m 147 75 b 144 114 114 75 114 114 b 201 103 158 114 178 110 b 147 75 185 83 164 75 z "},"¤":{"ha":606,"x_min":0,"x_max":0,"o":"m 446 710 b 358 640 426 697 394 672 b 318 647 346 644 332 647 b 269 638 301 647 285 643 b 172 701 231 669 196 694 b 110 635 161 704 101 640 b 196 560 129 621 160 594 b 189 517 190 547 189 532 b 196 474 189 501 190 488 b 124 365 160 431 132 392 b 190 304 121 356 185 294 b 271 396 206 324 235 358 b 318 388 286 390 301 388 b 358 393 332 388 346 389 b 435 299 393 354 421 321 b 515 379 442 289 524 367 b 440 474 503 401 475 435 b 449 517 446 488 449 501 b 440 560 449 532 446 546 b 526 629 476 592 507 617 b 446 710 536 635 458 717 z m 281 517 b 318 556 281 538 297 556 b 357 517 339 556 357 538 b 318 479 357 496 339 479 b 281 517 297 479 281 496 z "},"¥":{"ha":1028,"x_min":0,"x_max":0,"o":"m 975 246 b 835 258 947 253 893 258 b 836 308 836 275 836 292 b 975 294 894 306 946 301 b 975 389 986 293 990 385 b 836 403 947 396 894 401 b 836 417 836 407 836 413 b 843 839 839 515 843 644 b 763 1068 843 1032 803 1067 b 679 839 721 1068 679 1040 b 681 739 679 814 679 779 b 561 561 660 688 606 561 b 518 860 508 561 518 706 b 360 1088 518 954 508 1088 b 172 582 25 1088 -56 582 b 289 704 301 582 311 704 b 315 996 171 704 206 996 b 354 847 356 996 354 918 b 486 396 354 656 322 396 b 681 567 588 396 647 483 b 676 394 681 511 679 453 b 581 369 636 389 601 381 b 585 299 572 364 575 296 b 672 307 604 303 636 306 b 668 249 671 288 669 268 b 581 225 631 244 600 236 b 585 154 572 221 575 153 b 657 163 601 158 628 161 b 572 -22 642 54 615 -22 b 539 238 468 -22 469 238 b 468 365 569 238 592 365 b 549 -128 235 365 242 -128 b 825 165 735 -128 801 19 b 975 151 886 163 944 158 b 975 246 986 149 990 242 z "},"§":{"ha":574,"x_min":0,"x_max":0,"o":"m 519 475 b 233 838 519 625 233 701 b 303 935 233 886 256 935 b 318 826 372 935 381 826 b 374 731 293 826 283 731 b 324 1025 517 731 514 1025 b 128 836 207 1025 128 940 b 147 739 128 800 135 768 b 58 578 92 706 58 647 b 274 201 58 388 274 310 b 231 165 274 176 247 165 b 165 271 151 165 119 271 b 108 351 178 271 194 351 b 232 0 -43 351 -46 0 b 450 218 339 0 450 68 b 425 292 450 244 440 269 b 519 475 481 326 519 386 z m 164 579 b 194 663 164 613 174 644 b 343 460 258 583 343 526 b 300 422 343 435 315 422 b 279 425 293 422 286 424 b 164 579 218 472 164 521 z "},"¨":{"ha":428,"x_min":0,"x_max":0,"o":"m 114 1025 b 43 953 75 1025 43 993 b 114 882 43 914 75 882 b 185 953 153 882 185 914 b 114 1025 185 993 153 1025 z m 314 1025 b 243 953 275 1025 243 993 b 314 882 243 914 275 882 b 385 953 353 882 385 914 b 314 1025 385 993 353 1025 z "},"©":{"ha":1181,"x_min":0,"x_max":0,"o":"m 756 453 b 593 301 749 403 708 301 b 593 811 365 301 481 811 b 597 568 649 811 664 568 b 600 639 571 568 568 639 b 574 678 610 639 613 678 b 599 496 501 678 488 496 b 586 863 763 496 768 863 b 571 208 358 863 240 208 b 792 454 760 208 792 414 b 756 453 792 483 758 483 z m 564 1071 b 19 526 263 1071 19 828 b 564 -18 19 225 263 -18 b 1108 526 865 -18 1108 225 b 564 1071 1108 828 865 1071 z m 564 81 b 206 526 367 81 206 281 b 564 972 206 772 367 972 b 922 526 761 972 922 772 b 564 81 922 281 761 81 z "},"ª":{"ha":411,"x_min":0,"x_max":0,"o":"m 369 850 b 340 849 369 874 343 874 b 304 731 335 808 328 731 b 308 989 276 731 303 949 b 232 1000 315 1033 251 1047 b 182 1025 221 1014 206 1025 b 126 651 -3 1025 14 651 b 210 757 163 651 190 699 b 271 651 215 696 232 651 b 369 850 358 651 369 818 z m 147 731 b 188 983 108 731 121 983 b 218 940 204 983 213 960 b 147 731 207 876 178 731 z "},"«":{"ha":578,"x_min":0,"x_max":0,"o":"m 149 435 b 314 604 213 501 272 568 b 236 686 332 621 260 704 b 43 436 178 644 67 511 b 43 432 43 436 43 433 b 236 182 67 358 181 233 b 306 274 260 160 326 254 b 149 435 258 319 213 368 z m 532 604 b 454 686 550 621 478 704 b 261 436 397 644 285 511 b 261 432 261 436 261 433 b 454 182 285 358 399 233 b 524 274 478 160 546 254 b 368 435 476 319 431 368 b 532 604 431 501 490 568 z "},"®":{"ha":1181,"x_min":0,"x_max":0,"o":"m 771 308 b 624 497 729 308 658 431 b 533 871 824 572 810 871 b 358 571 249 871 219 571 b 428 644 436 571 442 644 b 493 821 357 644 382 793 b 468 732 478 806 468 774 b 465 451 467 672 465 494 b 403 281 465 333 454 281 b 463 208 388 281 394 208 b 560 432 563 208 561 347 b 729 208 603 338 672 208 b 850 454 838 208 850 414 b 814 453 850 483 818 483 b 771 308 808 403 799 308 z m 547 825 b 561 528 724 811 704 565 b 567 739 563 607 565 721 b 547 825 569 782 563 811 z m 564 1071 b 19 526 263 1071 19 828 b 564 -18 19 225 263 -18 b 1108 526 865 -18 1108 225 b 564 1071 1108 828 865 1071 z m 564 81 b 206 526 367 81 206 281 b 564 972 206 772 367 972 b 922 526 761 972 922 772 b 564 81 922 281 761 81 z "},"°":{"ha":344,"x_min":0,"x_max":0,"o":"m 172 765 b 303 894 244 765 303 824 b 172 1025 303 967 244 1025 b 43 894 100 1025 43 967 b 172 765 43 824 100 765 z m 172 933 b 211 894 193 933 211 915 b 172 857 211 874 193 857 b 135 894 151 857 135 874 b 172 933 135 915 151 933 z "},"²":{"ha":400,"x_min":0,"x_max":0,"o":"m 228 682 b 219 653 203 682 204 653 b 197 575 279 653 286 575 b 100 581 129 575 139 581 b 319 904 156 683 319 783 b 197 1021 319 975 269 1021 b 118 821 32 1021 19 821 b 165 878 169 821 176 878 b 179 985 85 878 107 985 b 238 914 226 985 238 944 b 43 521 238 803 43 640 b 78 511 43 497 69 503 b 221 499 131 511 168 499 b 228 682 376 499 360 682 z "},"³":{"ha":367,"x_min":0,"x_max":0,"o":"m 222 769 b 175 1021 346 829 329 1021 b 104 832 22 1021 7 832 b 153 881 163 832 169 881 b 174 989 76 881 94 989 b 139 781 254 989 232 781 b 129 767 133 781 129 774 b 129 767 129 767 129 767 b 129 767 129 767 129 767 b 129 765 129 765 129 765 b 129 765 129 765 129 765 b 139 751 129 758 133 751 b 160 592 282 751 269 592 b 153 651 79 592 90 651 b 147 675 169 651 167 675 b 161 511 19 675 8 511 b 222 769 332 511 393 719 z "},"´":{"ha":286,"x_min":0,"x_max":0,"o":"m 118 851 b 240 965 139 899 193 947 b 190 1025 253 971 215 1021 b 43 932 119 1036 58 982 b 118 851 36 906 110 831 z "},"·":{"ha":331,"x_min":0,"x_max":0,"o":"m 251 526 b 181 597 251 565 219 597 b 110 526 142 597 110 565 b 181 456 110 486 142 456 b 251 526 219 456 251 486 z "},"¸":{"ha":229,"x_min":0,"x_max":0,"o":"m 113 -32 b 146 40 124 -10 138 21 b 60 61 153 56 71 79 b 3 -36 31 11 17 -10 b 11 -87 -12 -61 -25 -87 b -90 -231 121 -87 93 -231 b -76 -357 -112 -231 -118 -357 b 113 -32 201 -357 358 -65 z "},"¹":{"ha":304,"x_min":0,"x_max":0,"o":"m 214 542 b 217 1003 164 542 217 990 b 175 1021 218 1014 196 1021 l 175 1021 b 175 1021 175 1021 175 1021 b 54 971 131 1021 107 971 b 82 908 36 971 35 908 b 132 933 101 908 119 919 b 200 511 119 781 103 511 b 214 542 219 511 222 542 z "},"º":{"ha":356,"x_min":0,"x_max":0,"o":"m 176 1021 b 167 511 24 1021 -22 511 b 176 1021 339 511 322 1021 z m 167 592 b 171 985 107 592 118 985 b 167 592 219 985 228 592 z "},"»":{"ha":578,"x_min":0,"x_max":0,"o":"m 429 435 b 272 274 365 368 319 319 b 342 182 251 254 318 160 b 535 432 397 233 511 358 b 535 436 535 433 535 436 b 342 686 511 511 400 644 b 264 604 318 704 246 621 b 429 435 306 568 365 501 z m 46 604 b 210 435 88 568 147 501 b 54 274 147 368 101 319 b 124 182 32 254 100 160 b 317 432 179 233 293 358 b 317 436 317 433 317 436 b 124 686 293 511 181 644 b 46 604 100 704 28 621 z "},"¿":{"ha":553,"x_min":0,"x_max":0,"o":"m 322 882 b 393 954 361 882 393 914 b 322 1025 393 993 361 1025 b 251 954 283 1025 251 993 b 322 882 251 914 283 882 z m 388 375 b 386 329 365 375 358 329 b 293 61 481 329 475 61 b 182 203 215 61 182 121 b 379 818 182 415 379 561 b 265 818 379 864 265 860 b 18 225 265 618 18 478 b 249 -18 18 83 96 -18 b 388 375 574 -18 565 375 z "},"ˆ":{"ha":442,"x_min":0,"x_max":0,"o":"m 221 950 b 340 788 268 906 319 826 b 397 842 349 772 408 824 b 222 1025 374 888 274 1008 b 219 1025 222 1025 219 1025 b 43 842 167 1008 64 889 b 108 793 35 821 100 775 b 221 950 128 833 174 906 z "},"ˇ":{"ha":442,"x_min":0,"x_max":0,"o":"m 221 860 b 101 1022 174 904 122 983 b 44 967 93 1038 33 986 b 219 785 68 922 168 801 b 222 785 219 785 222 785 b 399 967 275 801 378 921 b 333 1017 407 988 342 1035 b 221 860 314 976 268 904 z "},"˙":{"ha":228,"x_min":0,"x_max":0,"o":"m 185 953 b 114 1025 185 993 153 1025 b 43 953 75 1025 43 993 b 114 882 43 914 75 882 b 185 953 153 882 185 914 z "},"˚":{"ha":344,"x_min":0,"x_max":0,"o":"m 172 765 b 303 894 244 765 303 824 b 172 1025 303 967 244 1025 b 43 894 100 1025 43 967 b 172 765 43 824 100 765 z m 172 933 b 211 894 193 933 211 915 b 172 857 211 874 193 857 b 135 894 151 857 135 874 b 172 933 135 915 151 933 z "},"˛":{"ha":203,"x_min":0,"x_max":0,"o":"m 104 99 b 215 -275 -96 99 -128 -275 b 215 -133 253 -275 257 -133 b 99 13 -14 -133 50 13 b 104 99 117 13 126 99 z "},"˜":{"ha":431,"x_min":0,"x_max":0,"o":"m 43 893 b 79 896 43 881 79 883 b 132 936 79 918 104 936 b 282 865 169 936 213 865 b 388 1000 363 865 388 967 b 354 1003 388 1014 354 1015 b 290 946 354 969 310 946 b 139 1022 238 946 204 1022 b 43 893 67 1022 43 938 z "},"–":{"ha":690,"x_min":0,"x_max":0,"o":"m 600 419 b 600 514 614 417 617 510 b 115 493 506 533 204 535 b 119 422 104 488 107 421 b 600 419 215 439 504 438 z "},"—":{"ha":763,"x_min":0,"x_max":0,"o":"m 671 419 b 671 514 686 417 690 510 b 117 493 564 533 218 535 b 121 422 104 488 108 421 b 671 419 232 439 561 438 z "},"‘":{"ha":264,"x_min":0,"x_max":0,"o":"m 108 832 b 188 903 151 832 188 864 b 165 956 188 924 179 942 b 213 981 172 969 186 981 b 213 1025 222 981 228 1025 b 108 832 21 1025 -1 832 z "},"’":{"ha":264,"x_min":0,"x_max":0,"o":"m 156 1025 b 76 953 113 1025 76 993 b 99 901 76 933 85 914 b 51 876 92 888 78 876 b 51 832 42 876 36 832 b 156 1025 243 832 265 1025 z "},"‚":{"ha":264,"x_min":0,"x_max":0,"o":"m 156 128 b 76 57 113 128 76 96 b 99 6 76 36 85 18 b 51 -21 92 -8 78 -21 b 51 -64 42 -21 36 -64 b 156 128 243 -64 265 128 z "},"“":{"ha":444,"x_min":0,"x_max":0,"o":"m 289 832 b 368 903 331 832 368 864 b 346 956 368 924 360 942 b 393 981 353 969 365 981 b 393 1025 403 981 407 1025 b 289 832 201 1025 178 832 z m 108 832 b 189 903 151 832 189 864 b 165 956 189 924 179 942 b 213 981 172 969 186 981 b 213 1025 222 981 228 1025 b 108 832 21 1025 -1 832 z "},"”":{"ha":444,"x_min":0,"x_max":0,"o":"m 156 1025 b 76 953 114 1025 76 993 b 99 901 76 933 85 914 b 51 876 92 888 79 876 b 51 832 42 876 38 832 b 156 1025 243 832 267 1025 z m 336 1025 b 256 953 293 1025 256 993 b 279 901 256 933 265 914 b 232 876 272 888 258 876 b 232 832 222 876 217 832 b 336 1025 424 832 446 1025 z "},"„":{"ha":440,"x_min":0,"x_max":0,"o":"m 156 128 b 76 57 113 128 76 96 b 99 6 76 36 85 18 b 51 -21 92 -8 78 -21 b 51 -64 42 -21 36 -64 b 156 128 243 -64 265 128 z m 332 128 b 251 57 289 128 251 96 b 274 6 251 36 260 18 b 226 -21 268 -8 254 -21 b 226 -64 217 -21 213 -64 b 332 128 419 -64 442 128 z "},"†":{"ha":597,"x_min":0,"x_max":0,"o":"m 510 751 b 382 764 482 758 435 763 b 394 1029 385 879 389 976 b 281 1029 397 1056 285 1063 b 267 763 274 978 269 879 b 115 732 203 758 144 749 b 118 661 106 726 108 658 b 265 671 149 667 204 671 b 296 -6 263 410 271 99 b 388 1 301 -26 389 -21 b 381 671 378 114 375 415 b 510 657 433 668 482 664 b 510 751 521 656 524 747 z "},"•":{"ha":425,"x_min":0,"x_max":0,"o":"m 347 526 b 228 644 347 592 293 644 b 108 526 163 644 108 592 b 228 407 108 461 163 407 b 347 526 293 407 347 461 z "},"…":{"ha":776,"x_min":0,"x_max":0,"o":"m 185 71 b 114 143 185 111 153 143 b 42 71 74 143 42 111 b 114 0 42 32 74 0 b 185 71 153 0 185 32 z m 460 71 b 389 143 460 111 428 143 b 317 71 349 143 317 111 b 389 0 317 32 349 0 b 460 71 428 0 460 32 z m 735 71 b 664 143 735 111 703 143 b 592 71 624 143 592 111 b 664 0 592 32 624 0 b 735 71 703 0 735 32 z "},"‹":{"ha":358,"x_min":0,"x_max":0,"o":"m 149 435 b 314 604 211 501 272 568 b 235 686 332 621 260 704 b 42 436 178 644 65 511 b 42 432 42 436 42 433 b 235 182 65 358 181 233 b 306 274 260 160 326 254 b 149 435 258 319 211 368 z "},"›":{"ha":358,"x_min":0,"x_max":0,"o":"m 210 435 b 53 274 147 368 100 319 b 124 182 32 254 99 160 b 317 432 178 233 293 358 b 317 436 317 433 317 436 b 124 686 293 511 181 644 b 44 604 99 704 26 621 b 210 435 86 568 147 501 z "},"€":{"ha":908,"x_min":0,"x_max":0,"o":"m 806 375 b 539 124 796 293 729 124 b 331 340 414 124 351 217 b 442 329 376 338 418 335 b 442 422 454 326 457 419 b 322 435 417 429 372 433 b 322 485 321 451 322 468 b 442 472 372 482 417 478 b 442 567 454 469 457 563 b 332 579 418 572 378 576 b 539 968 361 778 450 968 b 553 685 629 968 663 685 b 557 803 508 685 504 803 b 514 867 574 803 578 867 b 554 565 394 867 371 565 b 528 1053 825 565 828 1053 b 176 575 353 1053 218 824 b 47 546 122 569 74 561 b 51 475 39 542 42 474 b 165 485 76 481 118 483 b 163 431 164 467 163 449 b 47 403 114 425 72 415 b 51 332 39 397 42 329 b 167 342 76 338 118 340 b 501 -29 186 139 286 -29 b 867 378 815 -29 867 311 b 806 375 865 426 813 425 z "},"™":{"ha":1033,"x_min":0,"x_max":0,"o":"m 990 669 b 961 668 990 693 964 693 b 926 550 957 628 949 550 b 903 982 882 550 903 963 b 796 1001 901 1017 821 1038 b 736 781 746 932 742 844 b 568 1014 721 861 672 1014 b 476 765 403 1014 364 765 b 533 825 539 765 543 825 b 546 968 475 825 492 968 b 563 965 551 968 557 968 l 558 965 b 558 667 557 888 558 758 b 507 528 558 572 549 528 b 556 471 494 528 500 471 b 635 667 643 471 635 603 b 621 896 635 708 628 818 b 682 650 660 810 678 674 b 764 650 690 614 761 624 b 817 911 768 676 804 911 b 892 471 836 911 753 471 b 990 669 981 471 990 638 z m 365 960 b 414 1061 465 960 475 1061 b 397 1054 406 1061 397 1058 b 251 1004 397 1025 333 1004 b 108 761 19 1004 -4 761 b 165 821 172 761 175 821 b 226 965 106 821 128 949 b 200 696 193 911 190 799 b 154 528 211 583 199 528 b 201 471 142 528 147 471 b 279 706 257 471 293 529 b 282 967 272 804 257 929 b 365 960 308 964 328 960 z "},"":{"ha":4507,"x_min":0,"x_max":0,"o":"m 2619 403 b 2549 164 2610 319 2594 164 b 2522 543 2510 164 2515 376 b 2547 542 2533 543 2542 542 b 2621 576 2583 540 2608 554 b 2619 403 2619 515 2619 457 z m 3718 164 b 3800 678 3639 164 3665 678 b 3861 589 3833 678 3851 629 b 3718 164 3839 461 3781 164 z m 2876 -28 b 2186 -131 2657 -28 2517 -131 b 1881 690 1800 -131 1803 172 b 1806 774 1888 742 1849 774 b 1714 682 1767 774 1725 746 b 2150 -256 1701 601 1469 -256 b 2982 -368 2597 -256 2839 -225 b 2996 -374 2986 -372 2990 -374 b 2876 -28 3068 -374 3221 -28 z m 1529 761 b 1389 689 1467 761 1421 728 b 1317 754 1381 732 1354 754 b 1226 629 1264 754 1228 708 b 1224 394 1225 546 1224 467 b 1154 164 1214 313 1199 164 b 1019 763 1079 164 1258 763 b 801 600 918 763 849 693 b 810 865 804 719 807 826 b 736 1025 817 969 786 1025 b 646 854 683 1025 647 961 b 644 400 643 685 643 526 b 378 153 633 318 565 153 b 378 997 0 153 189 997 b 385 593 468 997 493 593 b 389 711 340 593 336 711 b 346 775 404 711 408 775 b 385 474 226 775 201 474 b 365 1082 656 474 665 1082 b 339 0 -12 1082 -207 0 l 351 0 b 649 196 511 4 600 99 b 725 0 657 44 683 0 b 800 229 765 0 804 32 b 800 272 800 242 800 257 b 960 671 840 438 907 671 b 1085 0 1017 671 858 0 b 1232 122 1156 0 1201 54 b 1306 0 1242 28 1268 0 b 1381 168 1346 0 1386 24 b 1385 511 1379 238 1381 394 b 1500 678 1410 582 1451 678 b 1463 531 1556 678 1522 531 b 1529 440 1444 531 1453 440 b 1529 761 1668 440 1708 761 z m 1989 350 b 2113 0 1839 350 1836 0 b 2331 217 2219 0 2331 68 b 2044 578 2331 365 2044 442 b 2115 674 2044 626 2068 674 b 2129 567 2183 674 2192 567 b 2185 471 2106 567 2094 471 b 2281 561 2238 471 2269 511 b 2344 547 2293 551 2313 546 b 2369 547 2351 547 2361 547 b 2479 0 2363 417 2325 0 b 2628 124 2551 0 2597 54 b 2701 0 2638 28 2663 0 b 2776 168 2742 0 2781 24 b 2775 272 2776 193 2775 231 b 2936 671 2817 436 2883 671 b 2936 246 2969 671 2936 410 b 3017 0 2936 82 2951 0 b 3121 243 3099 0 3115 88 b 3126 436 3122 279 3128 354 b 3242 671 3164 558 3207 671 b 3368 0 3300 671 3142 0 b 3529 158 3450 0 3500 74 b 3675 0 3557 65 3607 0 b 3835 182 3742 0 3794 81 b 4042 -308 3832 -32 3860 -308 b 4174 -44 4251 -308 4231 -44 b 4101 -76 4156 -44 4143 -76 b 4047 690 3988 -76 4010 354 b 3972 774 4053 742 4014 774 b 3890 713 3940 774 3907 754 b 3789 763 3869 739 3838 763 b 3503 364 3594 763 3510 561 b 3436 164 3493 281 3476 164 b 3301 763 3363 164 3542 763 b 3106 638 3215 763 3151 711 b 2996 763 3088 710 3054 763 b 2783 611 2899 763 2831 699 b 2786 638 2785 622 2785 631 b 2713 754 2793 714 2763 754 b 2622 639 2663 754 2628 713 b 2567 668 2613 658 2593 667 b 2528 669 2553 668 2540 668 b 2529 704 2529 682 2529 694 b 2414 1078 2532 865 2568 1078 b 2283 913 2286 1078 2244 913 b 2372 668 2356 913 2372 836 b 2279 647 2347 668 2297 663 b 2135 764 2264 708 2217 764 b 1940 575 2018 764 1940 681 b 2154 201 1940 386 2154 308 b 2111 164 2154 176 2128 164 b 2047 269 2032 164 2000 269 b 1989 350 2058 269 2075 350 z m 4163 350 b 4285 0 4011 350 4008 0 b 4503 217 4392 0 4503 68 b 4217 578 4503 365 4217 442 b 4288 674 4217 626 4240 674 b 4301 567 4356 674 4364 567 b 4358 471 4278 567 4267 471 b 4307 764 4499 471 4497 764 b 4113 575 4190 764 4113 681 b 4326 201 4113 386 4326 308 b 4283 164 4326 176 4300 164 b 4219 269 4206 164 4174 269 b 4163 350 4232 269 4247 350 z m 1821 831 b 1906 915 1868 831 1906 868 b 1821 1001 1906 963 1868 1001 b 1735 915 1772 1001 1735 963 b 1821 831 1735 868 1772 831 z "},"":{"ha":4389,"x_min":0,"x_max":0,"o":"m 283 164 b 288 635 110 164 101 635 b 206 749 311 635 314 749 b 200 749 204 749 204 749 b 299 1008 190 854 229 1008 b 283 164 467 1008 560 164 z m 2274 164 b 2356 678 2194 164 2221 678 b 2417 590 2389 678 2407 629 b 2274 164 2394 461 2336 164 z m 3672 164 b 3756 678 3593 164 3619 678 b 3815 590 3789 678 3807 629 b 3672 164 3793 461 3735 164 z m 2161 -207 b 2296 -244 2215 -207 2260 -221 b 2031 -332 2210 -293 2126 -332 b 2161 -207 1853 -332 1899 -207 z m 2808 -219 b 2667 -156 2747 -219 2701 -196 b 2819 -126 2714 -137 2765 -126 b 2808 -219 2997 -126 2967 -219 z m 2828 -37 b 2618 -74 2750 -37 2681 -51 b 2603 690 2515 175 2597 656 b 2529 772 2611 740 2571 772 b 2444 713 2496 772 2461 754 b 2344 763 2425 739 2393 763 b 2058 371 2151 763 2067 565 b 1992 164 2049 286 2032 164 b 1857 763 1917 164 2096 763 b 1644 611 1760 763 1692 699 b 1647 638 1646 622 1646 631 b 1574 754 1654 714 1624 754 b 1483 629 1521 754 1485 708 b 1481 390 1482 543 1481 463 b 1411 164 1471 307 1456 164 b 1376 688 1351 164 1371 583 b 1301 763 1379 736 1342 763 b 1211 678 1260 763 1217 736 b 1194 404 1203 601 1194 503 b 1122 164 1185 322 1169 164 b 869 475 1044 164 913 396 b 1001 583 908 535 954 583 b 1064 549 1042 583 1047 549 b 1021 746 1118 549 1167 746 b 799 528 932 746 853 632 b 807 865 800 672 803 818 b 735 1025 814 969 783 1025 b 643 854 681 1025 646 961 b 646 213 639 582 640 336 b 722 0 653 47 681 0 b 797 229 763 0 803 32 b 797 324 797 253 797 286 b 1054 0 833 228 932 6 b 1214 157 1136 0 1186 72 b 1342 0 1235 65 1274 0 b 1489 121 1413 0 1458 53 b 1563 0 1499 28 1525 0 b 1638 168 1603 0 1642 24 b 1638 272 1638 193 1636 231 b 1797 671 1678 436 1744 671 b 1922 0 1854 671 1696 0 b 2083 158 2006 0 2054 74 b 2229 0 2111 65 2163 0 b 2397 203 2301 0 2357 90 b 2465 -143 2401 81 2419 -43 b 2411 -175 2447 -154 2429 -164 b 2147 -69 2350 -112 2263 -69 b 2025 -439 1717 -69 1725 -439 b 2374 -328 2165 -439 2275 -389 b 2329 -550 2429 -428 2411 -550 b 2258 -489 2276 -550 2289 -489 b 2315 -701 2185 -489 2156 -701 b 2475 -262 2517 -701 2572 -449 b 2519 -233 2490 -253 2504 -243 b 2794 -360 2581 -311 2668 -360 b 2828 -37 3119 -360 3186 -37 z m 307 1082 b 88 685 132 1082 64 871 b 276 0 -58 504 -37 0 b 307 1082 719 0 685 1082 z m 4236 569 b 4118 432 4092 569 4083 432 b 4056 26 4279 432 4233 26 b 4001 690 3888 26 3993 639 b 3928 772 4010 740 3971 772 b 3844 713 3896 772 3861 754 b 3743 763 3824 739 3792 763 b 3458 376 3553 763 3467 568 b 3350 310 3451 343 3429 299 b 3351 318 3351 313 3351 315 b 3308 774 3392 492 3406 774 b 3246 296 3215 774 3164 449 b 3175 164 3226 221 3201 164 b 3149 676 3099 164 3136 556 b 3069 753 3154 735 3111 753 b 2975 682 3026 751 2982 735 b 2967 585 2972 663 2969 629 b 2840 164 2949 453 2901 164 b 2814 676 2764 164 2801 556 b 2735 753 2819 735 2776 753 b 2640 682 2692 751 2647 735 b 2818 0 2626 579 2579 0 b 2988 188 2904 0 2957 83 b 3153 0 3014 81 3064 0 b 3332 224 3249 0 3301 103 b 3363 219 3342 221 3351 219 b 3463 256 3407 219 3439 235 b 3629 0 3481 115 3540 0 b 3804 222 3706 0 3763 101 b 4039 -118 3821 64 3888 -118 b 4236 569 4393 -118 4497 569 z m 1325 831 b 1411 915 1372 831 1411 868 b 1325 1001 1411 963 1372 1001 b 1240 915 1278 1001 1240 963 b 1325 831 1240 868 1278 831 z "}}}
